<?xml version="1.0" encoding="utf-8"?>
<!-- Generator: Adobe Illustrator 21.1.0, SVG Export Plug-In . SVG Version: 6.00 Build 0)  -->
<svg version="1.1" id="图层_1" xmlns="http://www.w3.org/2000/svg" xmlns:xlink="http://www.w3.org/1999/xlink" x="0px" y="0px"
	 viewBox="0 0 1124 1021" style="enable-background:new 0 0 1124 1021;" xml:space="preserve">
<style type="text/css">
	.st0{fill:none;stroke:#009FE8;stroke-width:2;stroke-linecap:round;stroke-miterlimit:10;}
	.st1{fill:none;stroke:#009FE8;stroke-width:2;stroke-miterlimit:10;}
	.st2{fill:none;stroke:#0A57A1;stroke-width:2;stroke-miterlimit:10;}
	.st3{fill:#0A57A1;}
</style>
<line class="st0" x1="562.7" y1="668.8" x2="563.2" y2="864.4"/>
<line class="st1" x1="581.6" y1="668.8" x2="581.6" y2="917.1"/>
<line class="st1" x1="600.4" y1="668.8" x2="600.4" y2="952.3"/>
<line class="st1" x1="638.1" y1="668.8" x2="638.1" y2="952.3"/>
<polyline class="st1" points="657,668.8 657,708.1 872,708.1 872,810.7 885.4,824.9 "/>
<polyline class="st1" points="675.8,668.8 675.8,690.5 889.8,690.5 889.8,778.8 "/>
<line class="st1" x1="619.3" y1="668.8" x2="619.3" y2="976.3"/>
<line class="st1" x1="668.5" y1="917.1" x2="668.5" y2="834.5"/>
<line class="st1" x1="770.1" y1="925.6" x2="770.1" y2="891"/>
<polyline class="st1" points="700.4,963.8 722.3,963.8 722.3,848.3 762.1,848.3 "/>
<rect x="724.6" y="629.3" transform="matrix(-1 -1.224647e-16 1.224647e-16 -1 1486.9148 1296.402)" class="st2" width="37.8" height="37.8"/>
<rect x="932.7" y="289.5" transform="matrix(-1 -1.224647e-16 1.224647e-16 -1 1903.246 616.756)" class="st2" width="37.8" height="37.8"/>
<rect x="650" y="57.5" transform="matrix(-1 -1.224647e-16 1.224647e-16 -1 1337.7125 152.893)" class="st2" width="37.8" height="37.8"/>
<line class="st1" x1="806.4" y1="805.4" x2="777.2" y2="775.7"/>
<line class="st1" x1="938.6" y1="692.2" x2="967.8" y2="662.5"/>
<line class="st1" x1="756.8" y1="299.6" x2="786.1" y2="269.9"/>
<line class="st1" x1="717.3" y1="101.7" x2="746.5" y2="72"/>
<line class="st1" x1="731.3" y1="277" x2="797.5" y2="209.8"/>
<line class="st1" x1="755.5" y1="805.4" x2="726.3" y2="775.7"/>
<line class="st1" x1="703" y1="805.4" x2="673.8" y2="775.7"/>
<line class="st1" x1="581.7" y1="274.2" x2="581.7" y2="144.6"/>
<line class="st1" x1="600.6" y1="274.2" x2="600.6" y2="37.3"/>
<polyline class="st1" points="638.3,274.2 638.3,136.3 777.3,136.3 777.3,93.8 "/>
<polyline class="st1" points="657.1,274.2 657.1,154.1 844.5,154.1 "/>
<polyline class="st1" points="676,274.2 676,174.5 866.3,174.5 "/>
<polyline class="st1" points="619.4,274.2 619.4,56.4 637.3,35.3 "/>
<polyline class="st1" points="747.9,598.7 852.4,598.7 888.9,636.4 888.9,649.2 "/>
<line class="st1" x1="747.9" y1="579.9" x2="954.6" y2="579.9"/>
<line class="st1" x1="747.9" y1="561" x2="893.9" y2="561"/>
<polyline class="st1" points="747.9,523.3 1011,523.3 1049.4,564.4 "/>
<polyline class="st1" points="747.9,542.2 993.1,542.2 1013.9,564.4 "/>
<polyline class="st1" points="747.9,485.6 1000.6,485.6 1037.5,450.9 1037.5,391.3 "/>
<polyline class="st1" points="747.9,466.8 1000.6,466.8 1020.5,447.9 1020.5,414.9 "/>
<line class="st1" x1="747.9" y1="429" x2="894.2" y2="429"/>
<line class="st1" x1="747.9" y1="447.9" x2="868.3" y2="447.9"/>
<line class="st1" x1="747.9" y1="410.2" x2="868.3" y2="410.2"/>
<line class="st1" x1="747.9" y1="391.3" x2="894.2" y2="391.3"/>
<line class="st1" x1="747.9" y1="372.5" x2="868.3" y2="372.5"/>
<polyline class="st1" points="746.5,334.8 854.8,334.8 939.1,249.1 "/>
<line class="st1" x1="747.9" y1="353.6" x2="955.1" y2="353.6"/>
<polyline class="st1" points="747.9,504.5 1003.6,504.5 1057.1,451.3 1057.1,414.4 "/>
<line class="st1" x1="563.8" y1="274.2" x2="563.8" y2="171.3"/>
<line class="st1" x1="545" y1="274.2" x2="545" y2="133.7"/>
<line class="st1" x1="526.1" y1="274.2" x2="526.1" y2="66.2"/>
<line class="st1" x1="488.4" y1="274.2" x2="488.4" y2="66.2"/>
<polyline class="st1" points="398.2,310.4 254.5,310.4 254.5,207.8 241.2,193.6 "/>
<polyline class="st1" points="411.1,328.1 236.7,328.1 236.7,238.8 "/>
<line class="st1" x1="507.3" y1="274.2" x2="507.3" y2="43.3"/>
<line class="st1" x1="458" y1="101.4" x2="458" y2="184.1"/>
<line class="st1" x1="356.5" y1="93" x2="356.5" y2="127.6"/>
<polyline class="st1" points="426.1,54.8 404.2,54.8 404.2,170.2 364.5,170.2 "/>
<rect x="156" y="684.1" class="st2" width="37.8" height="37.8"/>
<rect x="438.8" y="923.2" class="st2" width="37.8" height="37.8"/>
<line class="st1" x1="320.1" y1="213.1" x2="349.4" y2="242.8"/>
<line class="st1" x1="188" y1="326.4" x2="158.7" y2="356"/>
<line class="st1" x1="369.7" y1="719" x2="340.5" y2="748.6"/>
<line class="st1" x1="409.2" y1="916.9" x2="380" y2="946.5"/>
<line class="st1" x1="395.3" y1="741.6" x2="329" y2="808.7"/>
<line class="st1" x1="371" y1="213.1" x2="400.2" y2="242.8"/>
<line class="st1" x1="423.5" y1="213.1" x2="452.8" y2="242.8"/>
<rect x="186.7" y="554.3" class="st3" width="13.5" height="13.5"/>
<line class="st1" x1="544.8" y1="668.8" x2="545.4" y2="938.4"/>
<line class="st1" x1="526" y1="668.8" x2="526" y2="981.2"/>
<polyline class="st1" points="488.3,668.8 488.3,882.2 349.3,882.2 349.3,924.8 "/>
<polyline class="st1" points="469.4,668.8 469.4,864.4 282,864.4 "/>
<polyline class="st1" points="450.6,668.8 450.6,844.1 260.2,844.1 "/>
<polyline class="st1" points="507.1,854.5 507.1,962.1 488.3,984.3 "/>
<polyline class="st1" points="378.6,409.6 274.1,409.6 237.7,382.2 237.7,369.4 "/>
<line class="st1" x1="378.6" y1="429" x2="171.9" y2="429"/>
<line class="st1" x1="378.6" y1="447.9" x2="231.7" y2="447.9"/>
<line class="st1" x1="378.6" y1="485.6" x2="78.6" y2="485.6"/>
<line class="st1" x1="378.6" y1="466.8" x2="172.3" y2="466.8"/>
<line class="st1" x1="378.6" y1="504.5" x2="333.2" y2="504.5"/>
<polyline class="st1" points="378.6,523.3 125.9,523.3 75.1,573.2 "/>
<polyline class="st1" points="378.6,542.2 125.9,542.2 112,555.4 "/>
<line class="st1" x1="378.6" y1="579.9" x2="232.4" y2="579.9"/>
<line class="st1" x1="378.6" y1="561" x2="258.2" y2="561"/>
<line class="st1" x1="328.1" y1="598.7" x2="258.2" y2="598.7"/>
<line class="st1" x1="405.4" y1="617.6" x2="170.8" y2="617.6"/>
<line class="st1" x1="393.2" y1="636.5" x2="258.2" y2="636.5"/>
<polyline class="st1" points="367.7,676.6 271.8,676.6 189.4,759.3 "/>
<line class="st1" x1="367.7" y1="655.3" x2="171.4" y2="655.3"/>
<line class="st1" x1="333.2" y1="504.5" x2="145.8" y2="504.5"/>
<line class="st1" x1="507.1" y1="783" x2="507.1" y2="854.5"/>
<line class="st1" x1="507.1" y1="783" x2="507.1" y2="668.8"/>
<line class="st1" x1="850.8" y1="657.5" x2="835.9" y2="657.7"/>
</svg>
